grf_walk
version=1
nRows=28
nColumns=19
inDegrees=no
endheader
time	ground_force_r_vx	ground_force_r_vy	ground_force_r_vz	ground_force_r_px	ground_force_r_py	ground_force_r_pz	ground_torque_r_x	ground_torque_r_y	ground_torque_r_z	ground_force_l_vx	ground_force_l_vy	ground_force_l_vz	ground_force_l_px	ground_force_l_py	ground_force_l_pz	ground_torque_l_x	ground_torque_l_y	ground_torque_l_z
0.597	-34.88392647983866	632.3555407903993	-30.70490703573547	0.164971365252819	0	-0.1699253374159526	0	3.575195152736315	0	0	0	0	4.918335941165832	0	-11.63947779873103	0	0	0
0.5975	-34.58744052474545	631.6561123833868	-30.5922393285966	0.1651497625946292	0	-0.1699075227279951	0	3.582250205372031	0	0	0	0	4.893978866712775	0	-11.56745524166831	0	0	0
0.598	-34.29278043580082	630.9665529669398	-30.48053992870383	0.1653283003504404	0	-0.1698897075034248	0	3.589372639948766	0	0	0	0	4.869717225345811	0	-11.49573924896947	0	0	0
0.5985	-33.99994462983158	630.2868014707715	-30.36983998383118	0.1655069769619174	0	-0.1698718876885838	0	3.596563871453672	0	0	0	0	4.845550829408015	0	-11.42432916533797	0	0	0
0.599	-33.70893070980144	629.6167969182144	-30.26016968243404	0.1656857905675171	0	-0.1698540593129623	0	3.603825017566279	0	0	0	0	4.821479491225944	0	-11.35322433547144	0	0	0
0.5995	-33.4197354845915	628.9564785101709	-30.15155825863861	0.1658647390045787	0	-0.169836218570932	0	3.611156904991638	0	0	0	0	4.797503023137828	0	-11.28242410404545	0	0	0
0.6	-33.13235498954096	628.3057857069629	-30.04403400055915	0.1660438198581867	0	-0.1698183617674273	0	3.618560080018615	0	0	0	0	4.77362123745	0	-11.21192781571841	0	0	0
0.6005	-32.84678450769411	627.6646583072436	-29.93762426110419	0.1662230304313728	0	-0.1698004853657299	0	3.626034822859591	0	0	0	0	4.749833946466953	0	-11.14173481515739	0	0	0
0.601	-32.56301859155663	627.0330365227081	-29.83235547089948	0.1664023677626292	0	-0.1697825860256834	0	3.63358116515512	0	0	0	0	4.726140962466173	0	-11.07184444702566	0	0	0
0.6015	-32.28105108515724	626.4108610478042	-29.72825315263168	0.1665818286865375	0	-0.1697646605772426	0	3.64119890990521	0	0	0	0	4.702542097743288	0	-11.00225605598723	0	0	0
0.602	-32.00087514637892	625.7980731234751	-29.62534193616429	0.16676140975797	0	-0.1697467060784671	0	3.648887653192625	0	0	0	0	4.679037164529219	0	-10.9329689867105	0	0	0
0.6025	-31.72248326929171	625.1946145943318	-29.52364557399916	0.1669411072818306	0	-0.1697287197858538	0	3.656646807064993	0	0	0	0	4.655625975087236	0	-10.86398258388001	0	0	0
0.603	-31.44586730657202	624.6004279588592	-29.42318695644574	0.1671209173108217	0	-0.1697106991995613	0	3.664475622957572	0	0	0	0	4.632308341661107	0	-10.79529619215539	0	0	0
0.6035	-31.17101849162277	624.0154564124084	-29.32398812627103	0.167300835608349	0	-0.1696926420591719	0	3.672373215063141	0	0	0	0	4.609084076488748	0	-10.726909156236	0	0	0
0.604	-30.89792746060024	623.4396438833115	-29.22607029235942	0.1674808576407094	0	-0.1696745463368837	0	3.680338583182467	0	0	0	0	4.585952991807005	0	-10.65882082081394	0	0	0
0.6045	-30.62658427403694	622.8729350623428	-29.12945384244039	0.1676609785611929	0	-0.1696564102795372	0	3.68837063469592	0	0	0	0	4.562914899852069	0	-10.59103053058262	0	0	0
0.605	-30.35697843818119	622.3152754263151	-29.03415835455015	0.1678411931840491	0	-0.1696382323625268	0	3.696468205301934	0	0	0	0	4.539969612850555	0	-10.52353763022675	0	0	0
0.6055	-30.08909892589017	621.7666112565115	-28.94020260754831	0.168021495905031	0	-0.1696200113178619	0	3.70463007833929	0	0	0	0	4.517116943048381	0	-10.4563414644508	0	0	0
0.606	-29.82293419707733	621.2268896530837	-28.84760459071479	0.1682018807447369	0	-0.1696017461340479	0	3.712855002454641	0	0	0	0	4.494356702696662	0	-10.38944137793066	0	0	0
0.6065	-29.55847221874738	620.6960585465571	-28.75638151266149	0.1683823412998104	0	-0.1695834360151162	0	3.721141707641299	0	0	0	0	4.471688704041263	0	-10.32283671535567	0	0	0
0.607	-29.29570048457808	620.1740667076051	-28.66654981001589	0.1685628706891256	0	-0.1695650804007596	0	3.729488919551823	0	0	0	0	4.449112759358846	0	-10.25652682138519	0	0	0
0.6075	-29.03460603396471	619.6608637565022	-28.57812515611418	0.1687434615405453	0	-0.1695466789587495	0	3.737895372084479	0	0	0	0	4.426628680911099	0	-10.19051104067851	0	0	0
0.608	-28.77517547076267	619.1564001733861	-28.49112247013053	0.1689241060070938	0	-0.1695282315281499	0	3.746359818352199	0	0	0	0	4.404236280975252	0	-10.12478871787376	0	0	0
0.6085	-28.51739498160606	618.6606273106065	-28.40555592700555	0.1691047957425538	0	-0.1695097381541351	0	3.754881039936873	0	0	0	0	4.381935371822083	0	-10.05935919761967	0	0	0
0.609	-28.26125035388136	618.1734974081469	-28.32143896857061	0.1692855218528125	0	-0.1694911990709793	0	3.763457854707647	0	0	0	0	4.359725765745424	0	-9.994221824544598	0	0	0
0.6095	-28.00672699349772	617.6949636129939	-28.23878431609267	0.169466274950343	0	-0.1694726146202051	0	3.77208912305498	0	0	0	0	4.337607275027816	0	-9.929375943269285	0	0	0
0.61	-27.75380994247981	617.2249800030759	-28.157603984452	0.1696470451240283	0	-0.1694539852951106	0	3.78077375270574	0	0	0	0	4.315579711940057	0	-9.86482089841112	0	0	0
0.6105	-27.502483896456	616.7635016162478	-28.07790929811274	0.1698278219747986	0	-0.1694353117123679	0	3.789510702071921	0	0	0	0	4.293642888757245	0	-9.800556034588972	0	0	0
